<?xml version="1.0" encoding="UTF-8" standalone="no"?> <!-- Created with Inkscape (http://www.inkscape.org/) --> <svg xmlns:inkscape="http://www.inkscape.org/namespaces/inkscape" xmlns:rdf="http://www.w3.org/1999/02/22-rdf-syntax-ns#" xmlns="http://www.w3.org/2000/svg" xmlns:cc="http://creativecommons.org/ns#" xmlns:dc="http://purl.org/dc/elements/1.1/" xmlns:sodipodi="http://sodipodi.sourceforge.net/DTD/sodipodi-0.dtd" xmlns:svg="http://www.w3.org/2000/svg" xmlns:ns1="http://sozi.baierouge.fr" xmlns:xlink="http://www.w3.org/1999/xlink" id="svg2" sodipodi:docname="New document 1" viewBox="0 0 225.89 225.89" inkscape:version="0.48.2 r9819"><g id="layer1" inkscape:label="Layer 1" inkscape:groupmode="layer" transform="translate(-59.092 -39.995)"><g id="g3951" transform="translate(60,-141)"><path id="path2985" style="fill:#1a1a1a" sodipodi:type="star" d="m385.43 404.56c-5.2882 9.1594-29.829 13.391-36.267 21.782-6.4385 8.3908-4.1745 33.19-11.653 40.669-7.4786 7.4786-32.278 5.2146-40.669 11.653-8.3908 6.4385-12.623 30.979-21.782 36.267-9.1594 5.2882-32.528-3.3173-42.299 0.73014-9.7713 4.0474-20.21 26.656-30.426 29.394-10.216 2.7374-30.561-11.623-41.047-10.243-10.486 1.3805-26.421 20.517-36.997 20.517s-26.511-19.137-36.997-20.517c-10.486-1.3805-30.831 12.98-41.047 10.243-10.216-2.7374-20.655-25.346-30.426-29.394-9.7713-4.0474-33.14 4.5581-42.299-0.73015-9.1594-5.2882-13.391-29.829-21.782-36.267-8.3908-6.4385-33.19-4.1745-40.669-11.653-7.4786-7.4786-5.2146-32.278-11.653-40.669-6.4385-8.3908-30.979-12.623-36.267-21.782-5.2882-9.1594 3.3173-32.528-0.73014-42.299-4.0474-9.7713-26.656-20.21-29.394-30.426-2.7374-10.216 11.623-30.561 10.243-41.047-1.3805-10.486-20.517-26.421-20.517-36.997s19.137-26.511 20.517-36.997c1.3805-10.486-12.98-30.831-10.243-41.047 2.7374-10.216 25.346-20.655 29.394-30.426 4.0474-9.7713-4.5581-33.14 0.73014-42.299 5.2882-9.1594 29.829-13.391 36.267-21.782 6.4385-8.3908 4.1745-33.19 11.653-40.669 7.4786-7.4786 32.278-5.2146 40.669-11.653 8.3908-6.4385 12.623-30.979 21.782-36.267 9.1594-5.2882 32.528 3.3173 42.299-0.73014 9.7713-4.0474 20.21-26.656 30.426-29.394 10.216-2.7374 30.561 11.623 41.047 10.243 10.486-1.3805 26.421-20.517 36.997-20.517s26.511 19.137 36.997 20.517c10.486 1.3805 30.831-12.98 41.047-10.243 10.216 2.7374 20.655 25.346 30.426 29.394 9.7713 4.0474 33.14-4.5581 42.299 0.73014 9.1594 5.2882 13.391 29.829 21.782 36.267 8.3908 6.4385 33.19 4.1745 40.669 11.653 7.4786 7.4786 5.2146 32.278 11.653 40.669 6.4385 8.3908 30.979 12.623 36.267 21.782 5.2882 9.1594-3.3173 32.528 0.73015 42.299 4.0474 9.7713 26.656 20.21 29.394 30.426 2.7374 10.216-11.623 30.561-10.243 41.047 1.3805 10.486 20.517 26.421 20.517 36.997s-19.137 26.511-20.517 36.997c-1.3805 10.486 12.98 30.831 10.243 41.047-2.7374 10.216-25.346 20.655-29.394 30.426-4.0474 9.7713 4.5581 33.14-0.73015 42.299z" sodipodi:r1="301.54025" inkscape:flatsided="false" inkscape:transform-center-y="-28.236294" transform="matrix(.37456 0 0 .37456 65.484 198.88)" sodipodi:arg2="0.65449847" sodipodi:arg1="0.52359878" inkscape:randomized="0" sodipodi:cy="253.79076" sodipodi:cx="124.28571" inkscape:rounded="0.25" sodipodi:r2="283.44785" sodipodi:sides="24"></path><path id="path3759" style="fill:#ffffff" sodipodi:type="star" d="m132.26 312.5-3.2573-0.35165-1.5803 2.8699-3.2143-0.6342-1.8244 2.7213-3.1468-0.91194-2.0546 2.5519-3.0553-1.1827-2.2692 2.3631-2.9406-1.4445-2.4665 2.1564-2.8035-1.6953-2.6451 1.9332-2.6451-1.9332-2.8035 1.6953-2.4665-2.1564-2.9406 1.4445-2.2692-2.3631-3.0553 1.1827-2.0546-2.5519-3.1468 0.91193-1.8244-2.7213-3.2143 0.6342-1.5803-2.8699-3.2573 0.35164-1.3241-2.9967-3.2756 0.0664-1.0579-3.1008-3.2689-0.21933-0.78363-3.1812-3.2373-0.50339-0.50339-3.2374-3.1812-0.78363-0.21932-3.2689-3.1008-1.0579 0.06641-3.2756-2.9968-1.3241 0.35165-3.2573-2.8699-1.5803 0.6342-3.2143-2.7213-1.8244 0.91193-3.1468-2.5519-2.0546 1.1827-3.0553-2.3631-2.2692 1.4445-2.9406-2.1564-2.4666 1.6953-2.8035-1.9332-2.6451 1.9332-2.6451-1.6953-2.8035 2.1564-2.4665-1.4445-2.9406 2.3631-2.2692-1.1827-3.0553 2.5519-2.0546-0.91193-3.1468 2.7213-1.8244-0.6342-3.2143 2.8699-1.5803-0.35165-3.2573 2.9967-1.3241-0.06641-3.2756 3.1008-1.0579 0.21932-3.2689 3.1812-0.78363 0.50339-3.2374 3.2373-0.50339 0.78363-3.1812 3.2689-0.21933 1.0579-3.1008 3.2756 0.0664 1.3241-2.9968 3.2573 0.35165 1.5803-2.87 3.2143 0.63421 1.8244-2.7213 3.1468 0.91193 2.0546-2.5519 3.0553 1.1827 2.2692-2.3632 2.9406 1.4445 2.4666-2.1564 2.8035 1.6953 2.6451-1.9332 2.6451 1.9332 2.8035-1.6953 2.4666 2.1564 2.9406-1.4445 2.2692 2.3632 3.0553-1.1827 2.0546 2.5519 3.1468-0.91193 1.8244 2.7213 3.2143-0.6342 1.5803 2.8699 3.2573-0.35165 1.3241 2.9968 3.2756-0.0664 1.0579 3.1008 3.2689 0.21932 0.78363 3.1812 3.2374 0.5034 0.50339 3.2373 3.1812 0.78364 0.21932 3.2689 3.1008 1.0579-0.0664 3.2756 2.9968 1.3241-0.35164 3.2573 2.8699 1.5803-0.63421 3.2143 2.7213 1.8244-0.91193 3.1468 2.5519 2.0546-1.1827 3.0553 2.3631 2.2692-1.4445 2.9406 2.1564 2.4666-1.6953 2.8035 1.9332 2.6451-1.9332 2.6451 1.6953 2.8035-2.1564 2.4666 1.4445 2.9406-2.3631 2.2692 1.1827 3.0553-2.5519 2.0546 0.91193 3.1468-2.7213 1.8244 0.63421 3.2143-2.8699 1.5803 0.35164 3.2573-2.9968 1.3241 0.0664 3.2756-3.1008 1.0579-0.21933 3.2689-3.1812 0.78363-0.5034 3.2374-3.2373 0.50339-0.78363 3.1812-3.2689 0.21932-1.0579 3.1008-3.2756-0.0664z" sodipodi:r1="62.515999" inkscape:flatsided="false" transform="matrix(1.647 0 0 1.647 -54.309 -132.56)" sodipodi:arg2="1.0908308" sodipodi:arg1="1.0471976" inkscape:randomized="0" sodipodi:cy="258.36218" sodipodi:cx="101" inkscape:rounded="-3.1225023e-017" sodipodi:r2="60.640518" sodipodi:sides="72"></path><path id="path3761" sodipodi:rx="71" sodipodi:ry="71" style="stroke-linejoin:round;stroke:#000000;fill:#f9f9f9" sodipodi:type="arc" d="m50 162.36c0 39.212-31.788 71-71 71s-71-31.788-71-71 31.788-71 71-71 71 31.788 71 71z" transform="matrix(1.3793 0 0 1.3793 141 69.02)" sodipodi:cy="162.36218" sodipodi:cx="-21"></path><path id="path3763" sodipodi:rx="71" sodipodi:ry="71" style="fill:#000000" sodipodi:type="arc" d="m50 162.36c0 39.212-31.788 71-71 71s-71-31.788-71-71 31.788-71 71-71 71 31.788 71 71z" transform="matrix(1.3323 0 0 1.3323 140.02 76.642)" sodipodi:cy="162.36218" sodipodi:cx="-21"></path><path id="path3765" sodipodi:rx="71" sodipodi:ry="71" style="stroke-linejoin:round;stroke:#ffffff;stroke-dasharray:4.9310344, 4.9310344;stroke-width:4.931;fill:#000000" sodipodi:type="arc" d="m50 162.36c0 39.212-31.788 71-71 71s-71-31.788-71-71 31.788-71 71-71 71 31.788 71 71z" transform="matrix(1.2656 0 0 1.2656 138.61 87.47)" sodipodi:cy="162.36218" sodipodi:cx="-21"></path><path id="path3767" sodipodi:rx="71" sodipodi:ry="71" style="stroke-linejoin:round;stroke:#ffffff;stroke-width:2.1779;fill:#000000" sodipodi:type="arc" d="m50 162.36c0 39.212-31.788 71-71 71s-71-31.788-71-71 31.788-71 71-71 71 31.788 71 71z" transform="matrix(1.1881 0 0 1.1881 136.99 100.06)" sodipodi:cy="162.36218" sodipodi:cx="-21"></path><path id="path3769" sodipodi:rx="71" sodipodi:ry="71" style="stroke-linejoin:round;stroke:#ffffff;stroke-dasharray:1.14678731, 1.14678731;stroke-width:4.5871;fill:#ffffff" sodipodi:type="arc" d="m50 162.36c0 39.212-31.788 71-71 71s-71-31.788-71-71 31.788-71 71-71 71 31.788 71 71z" transform="matrix(1.09 0 0 1.09 134.93 115.99)" sodipodi:cy="162.36218" sodipodi:cx="-21"></path></g></g><metadata></metadata></svg> 