<svg width="27" height="27" xmlns="http://www.w3.org/2000/svg">
 <metadata/>

 <g>
  <title>Layer 1</title>
  <g stroke="null" id="layer1">
   <g stroke="null" id="g3951">
    <path stroke="null" id="path2985" d="m25.21384,20.02647c-0.23084,0.40378 -1.30208,0.59033 -1.5831,0.96024c-0.28105,0.3699 -0.18222,1.46315 -0.50867,1.79285c-0.32645,0.32969 -1.40898,0.22988 -1.77526,0.51371c-0.36627,0.28384 -0.55101,1.36568 -0.95081,1.5988c-0.39982,0.23312 -1.41989,-0.14624 -1.84641,0.03219c-0.42653,0.17843 -0.88219,1.1751 -1.32814,1.29581c-0.44594,0.12068 -1.33403,-0.51239 -1.79176,-0.45155c-0.45773,0.06086 -1.15331,0.90447 -1.61497,0.90447s-1.15724,-0.84364 -1.61497,-0.90447c-0.45773,-0.06086 -1.34581,0.57221 -1.79176,0.45155c-0.44594,-0.12068 -0.90162,-1.11735 -1.32814,-1.29581c-0.42653,-0.17843 -1.44661,0.20094 -1.84641,-0.03219c-0.39982,-0.23312 -0.58454,-1.31498 -0.95081,-1.5988c-0.36627,-0.28384 -1.44879,-0.18403 -1.77526,-0.51371c-0.32645,-0.32969 -0.22762,-1.42294 -0.50867,-1.79285c-0.28105,-0.3699 -1.35227,-0.55647 -1.5831,-0.96024c-0.23084,-0.40378 0.1448,-1.43396 -0.03187,-1.86471c-0.17667,-0.43076 -1.16357,-0.89094 -1.28309,-1.3413c-0.11949,-0.45036 0.50736,-1.34725 0.44712,-1.80952c-0.06026,-0.46226 -0.8956,-1.16474 -0.8956,-1.63098s0.83536,-1.16871 0.8956,-1.63098c0.06026,-0.46226 -0.56659,-1.35916 -0.44712,-1.80952c0.11949,-0.45036 1.10639,-0.91056 1.28309,-1.3413c0.17667,-0.43076 -0.19897,-1.46094 0.03187,-1.86471c0.23084,-0.40378 1.30208,-0.59033 1.5831,-0.96024c0.28105,-0.3699 0.18222,-1.46315 0.50867,-1.79285c0.32645,-0.32969 1.40898,-0.22988 1.77526,-0.51371c0.36627,-0.28384 0.55101,-1.36568 0.95081,-1.5988c0.39982,-0.23312 1.41989,0.14624 1.84641,-0.03219c0.42653,-0.17843 0.88219,-1.1751 1.32814,-1.29581c0.44594,-0.12068 1.33403,0.51239 1.79176,0.45155c0.45773,-0.06086 1.15331,-0.90447 1.61497,-0.90447s1.15724,0.84364 1.61497,0.90447c0.45773,0.06086 1.34581,-0.57221 1.79176,-0.45155c0.44594,0.12068 0.90162,1.11735 1.32814,1.29581c0.42653,0.17843 1.44661,-0.20094 1.84641,0.03219c0.39982,0.23312 0.58454,1.31498 0.95081,1.5988c0.36627,0.28384 1.44879,0.18403 1.77526,0.51371c0.32645,0.32969 0.22762,1.42294 0.50867,1.79285c0.28105,0.3699 1.35227,0.55647 1.5831,0.96024c0.23084,0.40378 -0.1448,1.43396 0.03187,1.86471c0.17667,0.43076 1.16357,0.89094 1.28309,1.3413c0.11949,0.45036 -0.50736,1.34725 -0.44712,1.80952c0.06026,0.46226 0.8956,1.16474 0.8956,1.63098s-0.83536,1.16871 -0.8956,1.63098c-0.06026,0.46226 0.56659,1.35916 0.44712,1.80952c-0.11949,0.45036 -1.10639,0.91056 -1.28309,1.3413c-0.17667,0.43076 0.19897,1.46094 -0.03187,1.86471l0,0z" fill="#1a1a1a"/>
    <path stroke="null" id="path3759" d="m19.81483,23.75925l-0.62521,-0.06817l-0.30333,0.55631l-0.61696,-0.12294l-0.35018,0.52751l-0.604,-0.17678l-0.39436,0.49467l-0.58644,-0.22926l-0.43555,0.45807l-0.56442,-0.28001l-0.47343,0.41801l-0.53811,-0.32862l-0.50771,0.37474l-0.50771,-0.37474l-0.53811,0.32862l-0.47343,-0.41801l-0.56442,0.28001l-0.43555,-0.45807l-0.58644,0.22926l-0.39436,-0.49467l-0.604,0.17677l-0.35018,-0.52751l-0.61696,0.12294l-0.30333,-0.55631l-0.62521,0.06816l-0.25415,-0.58089l-0.62872,0.01287l-0.20306,-0.60107l-0.62744,-0.04251l-0.15041,-0.61666l-0.62137,-0.09758l-0.09662,-0.62755l-0.61061,-0.1519l-0.0421,-0.63366l-0.59517,-0.20507l0.01275,-0.63496l-0.57521,-0.25667l0.0675,-0.63141l-0.55086,-0.30633l0.12173,-0.62307l-0.52233,-0.35365l0.17504,-0.60999l-0.48982,-0.39827l0.22701,-0.59225l-0.45358,-0.43987l0.27726,-0.57002l-0.4139,-0.47814l0.3254,-0.54344l-0.37106,-0.51274l0.37106,-0.51274l-0.3254,-0.54344l0.4139,-0.47812l-0.27726,-0.57002l0.45358,-0.43987l-0.22701,-0.59225l0.48982,-0.39827l-0.17504,-0.60999l0.52233,-0.35365l-0.12173,-0.62307l0.55086,-0.30633l-0.0675,-0.63141l0.57519,-0.25667l-0.01275,-0.63496l0.59517,-0.20507l0.0421,-0.63366l0.61061,-0.1519l0.09662,-0.62755l0.62137,-0.09758l0.15041,-0.61666l0.62744,-0.04251l0.20306,-0.60107l0.62872,0.01287l0.25415,-0.58091l0.62521,0.06817l0.30333,-0.55633l0.61696,0.12294l0.35018,-0.52751l0.604,0.17677l0.39436,-0.49467l0.58644,0.22926l0.43555,-0.45809l0.56442,0.28001l0.47344,-0.41801l0.53811,0.32862l0.50771,-0.37474l0.50771,0.37474l0.53811,-0.32862l0.47344,0.41801l0.56442,-0.28001l0.43555,0.45809l0.58644,-0.22926l0.39436,0.49467l0.604,-0.17677l0.35018,0.52751l0.61696,-0.12294l0.30333,0.55631l0.62521,-0.06817l0.25415,0.58091l0.62872,-0.01287l0.20306,0.60107l0.62744,0.04251l0.15041,0.61666l0.62139,0.09758l0.09662,0.62753l0.61061,0.15191l0.0421,0.63366l0.59517,0.20507l-0.01274,0.63496l0.57521,0.25667l-0.06749,0.63141l0.55086,0.30633l-0.12173,0.62307l0.52233,0.35365l-0.17504,0.60999l0.48982,0.39827l-0.22701,0.59225l0.45358,0.43987l-0.27726,0.57002l0.4139,0.47814l-0.3254,0.54344l0.37106,0.51274l-0.37106,0.51274l0.3254,0.54344l-0.4139,0.47814l0.27726,0.57002l-0.45358,0.43987l0.22701,0.59225l-0.48982,0.39827l0.17504,0.60999l-0.52233,0.35365l0.12173,0.62307l-0.55086,0.30633l0.06749,0.63141l-0.57521,0.25667l0.01274,0.63496l-0.59517,0.20507l-0.0421,0.63366l-0.61061,0.1519l-0.09662,0.62755l-0.62137,0.09758l-0.15041,0.61666l-0.62744,0.04251l-0.20306,0.60107l-0.62872,-0.01287l-0.25419,0.58091l0.00001,-0.00001z" fill="#ffffff"/>
    <path stroke="#000000" id="path3761" d="m25.22716,13.265c0,6.36557 -5.10973,11.52596 -11.41283,11.52596s-11.41283,-5.16038 -11.41283,-11.52596s5.10973,-11.52596 11.41283,-11.52596s11.41283,5.16038 11.41283,11.52596z" fill="#f9f9f9" stroke-linejoin="round"/>
    <path stroke="null" id="path3763" d="m24.83909,13.26395c0,6.14866 -4.93562,11.1332 -11.02394,11.1332s-11.02394,-4.98454 -11.02394,-11.1332s4.93562,-11.1332 11.02394,-11.1332s11.02394,4.98454 11.02394,11.1332z" fill="#000000"/>
    <path stroke="#ffffff" id="path3765" d="m24.2861,13.26379c0,5.84084 -4.68852,10.57583 -10.47204,10.57583s-10.47204,-4.735 -10.47204,-10.57583s4.68852,-10.57583 10.47204,-10.57583s10.47204,4.735 10.47204,10.57583z" fill="#000000" stroke-width="4.931" stroke-dasharray="4.9310344,4.9310344" stroke-linejoin="round"/>
    <path stroke="#ffffff" id="path3767" d="m23.64571,13.26462c0,5.48317 -4.40142,9.92821 -9.83078,9.92821s-9.83078,-4.44504 -9.83078,-9.92821s4.40142,-9.92821 9.83078,-9.92821s9.83078,4.44504 9.83078,9.92821z" fill="#000000" stroke-width="2.1779" stroke-linejoin="round"/>
    <path stroke="#ffffff" id="path3769" d="m22.83401,13.26492c0,5.03043 -4.038,9.10846 -9.01906,9.10846s-9.01906,-4.07802 -9.01906,-9.10846s4.038,-9.10846 9.01906,-9.10846s9.01906,4.07802 9.01906,9.10846z" fill="#ffffff" stroke-width="4.5871" stroke-dasharray="1.14678731,1.14678731" stroke-linejoin="round"/>
   </g>
  </g>
  <text fill="#000000" stroke-width="0" x="-22.69693" y="26.8128" id="svg_2" font-size="24" font-family="monospace" text-anchor="start" xml:space="preserve" stroke="#000" transform="matrix(0.226885 0 0 0.488515 12.3549 3.85737)" font-weight="normal" font-style="normal">Name</text>
 </g>
</svg>